<?xml version="1.0" standalone="no"?>
<!DOCTYPE svg PUBLIC "-//W3C//DTD SVG 20010904//EN"
 "http://www.w3.org/TR/2001/REC-SVG-20010904/DTD/svg10.dtd">
<svg version="1.0" xmlns="http://www.w3.org/2000/svg"
 width="1514.000000pt" height="778.000000pt" viewBox="0 0 1514.000000 778.000000"
 preserveAspectRatio="xMidYMid meet">

<g transform="translate(0.000000,778.000000) scale(0.100000,-0.100000)"
fill="#000000" stroke="none">
<path d="M11060 7444 c-1072 -64 -2037 -593 -2673 -1467 -79 -108 -245 -373
-262 -420 -7 -16 77 -17 1571 -17 1710 0 1648 2 1770 -54 70 -32 148 -111 182
-184 57 -124 38 -302 -47 -428 -39 -59 -666 -678 -680 -672 -4 2 -144 146
-311 321 l-304 317 -205 0 -204 0 24 -27 c19 -21 1266 -1327 1661 -1741 68
-70 98 -111 126 -170 36 -75 37 -80 37 -192 0 -103 -3 -121 -26 -171 -47 -101
-129 -174 -244 -220 l-60 -24 -1647 -3 c-907 -1 -1648 -6 -1648 -10 0 -33 227
-385 356 -552 115 -149 445 -480 594 -594 649 -500 1387 -756 2180 -756 1351
0 2584 774 3179 1995 165 338 270 688 326 1086 22 156 31 571 16 752 -87 1021
-619 1958 -1461 2568 -482 350 -1065 576 -1660 643 -137 16 -471 27 -590 20z
m1870 -1914 c95 -15 198 -69 258 -135 71 -77 96 -145 96 -260 0 -102 -22 -172
-81 -262 -29 -44 -648 -662 -672 -671 -13 -5 -606 621 -604 637 1 9 14 59 28
111 23 84 26 109 22 210 -5 130 -34 240 -87 323 -16 26 -30 50 -30 52 0 10
1007 5 1070 -5z m-415 -1755 c401 -418 743 -783 761 -811 56 -87 76 -164 72
-274 -3 -82 -7 -104 -35 -162 -55 -116 -165 -199 -301 -227 -35 -7 -232 -11
-573 -11 l-519 0 24 39 c70 110 101 229 100 381 0 139 -23 232 -90 362 -52 99
-61 109 -521 589 -164 171 -299 314 -299 317 -1 4 136 141 305 304 l306 297
22 -22 c11 -12 348 -364 748 -782z"/>
<path d="M0 3910 l0 -610 279 0 c154 0 315 5 358 10 150 20 257 97 304 219 31
80 30 222 -1 306 -30 79 -104 152 -185 185 -55 22 -78 24 -285 29 l-225 6 -3
128 -3 127 326 0 325 0 0 105 0 105 -445 0 -445 0 0 -610z m650 -95 c46 -27
73 -77 74 -134 1 -63 -19 -107 -63 -133 -34 -21 -49 -23 -228 -26 l-193 -4 0
162 0 162 188 -4 c167 -3 191 -5 222 -23z"/>
<path d="M1170 3910 l0 -611 107 3 108 3 265 404 265 403 3 -406 2 -406 120 0
120 0 0 610 0 610 -110 0 -111 0 -267 -402 -267 -403 -3 403 -2 402 -115 0
-115 0 0 -610z"/>
<path d="M2392 3913 l3 -608 118 -3 117 -3 0 271 0 270 243 -2 242 -3 3 -267
2 -268 115 0 115 0 0 610 0 610 -115 0 -115 0 0 -235 0 -235 -245 0 -245 0 0
235 0 235 -120 0 -120 0 2 -607z"/>
<path d="M3552 3913 l3 -608 455 0 455 0 3 108 3 107 -341 0 -341 0 3 153 3
152 298 3 297 2 0 105 0 105 -300 0 -300 0 0 135 0 135 330 0 330 0 0 105 0
105 -450 0 -450 0 2 -607z"/>
<path d="M4650 3910 l0 -610 120 0 120 0 0 230 0 230 183 0 c122 0 199 5 234
14 185 49 273 170 273 375 0 153 -45 245 -149 308 -92 55 -153 63 -485 63
l-296 0 0 -610z m595 382 c66 -23 95 -65 95 -139 0 -90 -36 -147 -109 -172
-20 -6 -99 -11 -187 -11 l-154 0 0 170 0 170 153 0 c116 -1 164 -5 202 -18z"/>
<path d="M5752 3913 l3 -608 118 -3 117 -3 0 506 0 505 285 0 285 0 0 105 0
105 -405 0 -405 0 2 -607z"/>
<path d="M6712 3913 l3 -608 109 0 109 0 266 405 266 405 3 -408 2 -407 120 0
120 0 0 610 0 610 -112 -1 -113 0 -265 -401 -265 -402 -3 402 -2 402 -120 0
-120 0 2 -607z"/>
<path d="M8228 4504 c-185 -44 -278 -166 -278 -364 0 -173 81 -298 225 -347
25 -8 45 -17 45 -19 0 -2 -70 -109 -155 -237 l-155 -232 137 -3 c75 -1 142 -1
148 2 6 2 71 103 145 225 l135 220 98 1 97 0 0 -225 0 -225 120 0 120 0 0 610
0 610 -312 -1 c-231 0 -328 -4 -370 -15z m442 -365 l0 -171 -182 4 c-204 3
-230 11 -275 78 -40 58 -27 168 25 213 42 38 90 46 265 47 l167 0 0 -171z"/>
<path d="M9890 3290 l0 -300 223 0 c211 0 224 1 245 20 27 25 28 46 3 85 -17
28 -458 495 -467 495 -2 0 -4 -135 -4 -300z"/>
</g>
</svg>
